<svg width="200" height="200" viewBox="0 0 200 200" fill="none" xmlns="http://www.w3.org/2000/svg">
<rect width="200" height="200" rx="5" fill="#E4E7EB"/>
<rect x="10" y="10" width="180" height="20" rx="4" fill="#1F2937"/>
<rect x="35" y="15" width="20" height="10" rx="4" fill="#555F6F"/>
<rect x="135" y="15" width="30" height="10" rx="4" fill="#555F6E"/>
<line x1="64.5" y1="20.5" x2="76.5" y2="20.5" stroke="white" stroke-width="3" stroke-linecap="round"/>
<line x1="85.5" y1="20.5" x2="97.5" y2="20.5" stroke="#9D9D9D" stroke-width="3" stroke-linecap="round"/>
<line x1="107.5" y1="20.5" x2="119.5" y2="20.5" stroke="#9D9D9D" stroke-width="3" stroke-linecap="round"/>
<line x1="37.5" y1="48.5" x2="79.5" y2="48.5" stroke="#9D9D9D" stroke-width="5" stroke-linecap="round"/>
<rect x="135" y="45" width="30" height="10" rx="4" fill="#0FB880"/>
<rect x="35" y="70" width="130" height="85" rx="4" fill="white"/>
<line x1="43.5" y1="89.5" x2="87.5" y2="89.5" stroke="#9D9D9D" stroke-width="3" stroke-linecap="round"/>
<line x1="43.5" y1="99.5" x2="100.5" y2="99.5" stroke="#9D9D9D" stroke-width="3" stroke-linecap="round"/>
<line x1="43.5" y1="109.5" x2="95.5" y2="109.5" stroke="#9D9D9D" stroke-width="3" stroke-linecap="round"/>
<line x1="43.5" y1="119.5" x2="110.5" y2="119.5" stroke="#9D9D9D" stroke-width="3" stroke-linecap="round"/>
<rect x="125" y="135" width="30" height="10" rx="4" fill="#0FB880"/>
</svg>
