<svg width="200" height="200" viewBox="0 0 200 200" fill="none" xmlns="http://www.w3.org/2000/svg">
<rect width="200" height="200" rx="5" fill="#E4E7EB"/>
<rect x="10" y="10" width="40" height="180" rx="4" fill="#1F2937"/>
<line x1="62.5" y1="43.5" x2="104.5" y2="43.5" stroke="#9D9D9D" stroke-width="5" stroke-linecap="round"/>
<rect x="160" y="40" width="30" height="10" rx="4" fill="#0FB880"/>
<rect x="20" y="20" width="20" height="10" rx="4" fill="#555F6F"/>
<rect x="10" y="40" width="40" height="9" fill="#0FB880"/>
<rect x="160" y="10" width="30" height="10" rx="4" fill="#D6D6D6"/>
<rect x="60" y="65" width="130" height="85" rx="4" fill="white"/>
<line x1="68.5" y1="84.5" x2="112.5" y2="84.5" stroke="#9D9D9D" stroke-width="3" stroke-linecap="round"/>
<line x1="18.5" y1="44.5" x2="40.5" y2="44.5" stroke="white" stroke-width="3" stroke-linecap="round"/>
<line x1="18.5" y1="54.5" x2="40.5" y2="54.5" stroke="#9D9D9D" stroke-width="3" stroke-linecap="round"/>
<line x1="18.5" y1="64.5" x2="40.5" y2="64.5" stroke="#9D9D9D" stroke-width="3" stroke-linecap="round"/>
<line x1="18.5" y1="74.5" x2="40.5" y2="74.5" stroke="#9D9D9D" stroke-width="3" stroke-linecap="round"/>
<line x1="68.5" y1="94.5" x2="125.5" y2="94.5" stroke="#9D9D9D" stroke-width="3" stroke-linecap="round"/>
<line x1="68.5" y1="104.5" x2="120.5" y2="104.5" stroke="#9D9D9D" stroke-width="3" stroke-linecap="round"/>
<line x1="68.5" y1="114.5" x2="135.5" y2="114.5" stroke="#9D9D9D" stroke-width="3" stroke-linecap="round"/>
<rect x="150" y="130" width="30" height="10" rx="4" fill="#0FB880"/>
<line x1="59.5" y1="28.5" x2="188.5" y2="28.5" stroke="#D5D5D5" stroke-width="3" stroke-linecap="round"/>
</svg>
