<svg width="170" height="32" viewBox="0 0 170 32" fill="none" xmlns="http://www.w3.org/2000/svg">
<path d="M15.258 26.865C15.2725 27.4021 15.1797 27.9367 14.9852 28.4376C14.7906 28.9384 14.4982 29.3955 14.125 29.782C13.7521 30.1668 13.3058 30.4728 12.8124 30.682C12.3191 30.8913 11.7889 30.9994 11.253 31C10.7171 31.0002 10.1865 30.8924 9.69311 30.6832C9.19969 30.4739 8.75345 30.1674 8.38102 29.782C8.00712 29.396 7.71425 28.939 7.51967 28.438C7.32508 27.9371 7.23272 27.4022 7.24802 26.865C7.25702 26.167 7.44802 25.483 7.80502 24.884C8.16102 24.284 8.66802 23.79 9.27502 23.451C9.25102 23.56 9.36502 23.396 9.27502 23.451L11.135 21.799C12.6094 20.2298 13.4329 18.1592 13.439 16.006C13.439 13.08 11.728 10.105 9.26902 8.549C9.36302 8.604 9.23302 8.455 9.26902 8.549C8.66171 8.20902 8.15496 7.71469 7.80002 7.116C7.44385 6.5163 7.25175 5.83344 7.24302 5.136C7.22837 4.59872 7.32104 4.06391 7.51558 3.56287C7.71012 3.06183 8.00264 2.60462 8.37602 2.218C8.74882 1.83334 9.19499 1.52735 9.68812 1.31815C10.1813 1.10894 10.7113 1.00076 11.247 1C11.783 0.999714 12.3135 1.10742 12.807 1.31668C13.3004 1.52595 13.7467 1.83249 14.119 2.218C14.4931 2.60395 14.786 3.06089 14.9806 3.56188C15.1752 4.06288 15.2675 4.59777 15.252 5.135C15.2624 7.30708 16.102 9.3932 17.599 10.967L18.416 11.767C18.742 12.052 19.084 12.318 19.44 12.565C20.061 12.895 20.582 13.391 20.944 13.996C21.215 14.4489 21.3913 14.9521 21.4622 15.4751C21.5331 15.9982 21.4972 16.5301 21.3566 17.0389C21.216 17.5476 20.9737 18.0225 20.6442 18.4349C20.3148 18.8473 19.9051 19.1885 19.44 19.438C19.473 19.371 19.377 19.474 19.44 19.438C18.1839 20.2321 17.1447 21.3258 16.416 22.621C15.6855 23.9184 15.2877 25.3764 15.258 26.865V26.865ZM19.741 5.123C19.741 5.919 19.976 6.698 20.417 7.36C20.8565 8.02107 21.4822 8.53685 22.215 8.842C22.9471 9.14685 23.7535 9.22661 24.5311 9.07112C25.3088 8.91563 26.0224 8.53193 26.581 7.969C27.1413 7.40452 27.5226 6.68728 27.6772 5.9071C27.8318 5.12692 27.7528 4.31848 27.45 3.583C27.1473 2.84836 26.6337 2.2199 25.974 1.777C25.2039 1.26028 24.2779 1.02768 23.355 1.11909C22.4321 1.2105 21.5698 1.62024 20.916 2.278C20.1641 3.034 19.7417 4.05673 19.741 5.123V5.123ZM23.748 22.84C22.956 22.84 22.181 23.076 21.522 23.518C20.8624 23.9609 20.3488 24.5894 20.046 25.324C19.7431 26.0596 19.6639 26.8683 19.8185 27.6486C19.9731 28.429 20.3545 29.1464 20.915 29.711C21.4736 30.2739 22.1873 30.6576 22.9649 30.8131C23.7426 30.9686 24.5489 30.8888 25.281 30.584C26.0145 30.2785 26.6406 29.762 27.08 29.1C27.5948 28.3249 27.8262 27.3959 27.7351 26.47C27.644 25.544 27.236 24.6779 26.58 24.018C26.2089 23.6446 25.7676 23.3482 25.2816 23.1457C24.7957 22.9432 24.2745 22.8386 23.748 22.838V22.84ZM34 15.994C34 15.198 33.765 14.42 33.325 13.758C32.8857 13.0966 32.26 12.5804 31.527 12.275C30.7948 11.9699 29.9882 11.8901 29.2104 12.0456C28.4325 12.2011 27.7187 12.5849 27.16 13.148C26.5995 13.7126 26.2181 14.43 26.0635 15.2104C25.9089 15.9907 25.9881 16.7994 26.291 17.535C26.5937 18.2696 27.1073 18.8981 27.767 19.341C28.4252 19.783 29.2002 20.019 29.993 20.019C30.5195 20.0182 31.0406 19.9136 31.5266 19.7111C32.0125 19.5086 32.4538 19.2123 32.825 18.839C33.577 18.0826 33.9994 17.0596 34 15.993V15.994Z" fill="#10B981"/>
<path d="M5.00699 11.969C4.21399 11.969 3.43999 12.205 2.78099 12.647C2.12121 13.0902 1.60759 13.719 1.30499 14.454C1.00226 15.1895 0.923231 15.9979 1.07781 16.7781C1.23239 17.5583 1.6137 18.2755 2.17399 18.84C2.73339 19.4017 3.44702 19.7845 4.22434 19.9399C5.00166 20.0953 5.80763 20.0164 6.53999 19.713C7.2729 19.4075 7.89866 18.8914 8.338 18.23C8.85242 17.4552 9.08361 16.5265 8.99251 15.601C8.90141 14.6754 8.49361 13.8097 7.83799 13.15C7.4669 12.7767 7.02585 12.4803 6.54007 12.2776C6.0543 12.075 5.53334 11.9701 5.00699 11.969V11.969Z" fill="#10B981"/>
<g transform="translate(0,-1)"><path d="M51.14 23L48.658 18.495H47.961V23H45.054V11.066H49.933C50.8737 11.066 51.6727 11.2303 52.33 11.559C52.9987 11.8877 53.4973 12.341 53.826 12.919C54.1547 13.4857 54.319 14.1203 54.319 14.823C54.319 15.6163 54.0923 16.3247 53.639 16.948C53.197 17.5713 52.5397 18.0133 51.667 18.274L54.421 23H51.14ZM47.961 16.438H49.763C50.2957 16.438 50.6923 16.3077 50.953 16.047C51.225 15.7863 51.361 15.418 51.361 14.942C51.361 14.4887 51.225 14.1317 50.953 13.871C50.6923 13.6103 50.2957 13.48 49.763 13.48H47.961V16.438ZM65.0858 18.104C65.0858 18.376 65.0688 18.6593 65.0348 18.954H58.4558C58.5012 19.5433 58.6882 19.9967 59.0168 20.314C59.3568 20.62 59.7705 20.773 60.2578 20.773C60.9832 20.773 61.4875 20.467 61.7708 19.855H64.8648C64.7062 20.4783 64.4172 21.0393 63.9978 21.538C63.5898 22.0367 63.0742 22.4277 62.4508 22.711C61.8275 22.9943 61.1305 23.136 60.3598 23.136C59.4305 23.136 58.6032 22.9377 57.8778 22.541C57.1525 22.1443 56.5858 21.5777 56.1778 20.841C55.7698 20.1043 55.5658 19.243 55.5658 18.257C55.5658 17.271 55.7642 16.4097 56.1608 15.673C56.5688 14.9363 57.1355 14.3697 57.8608 13.973C58.5862 13.5763 59.4192 13.378 60.3598 13.378C61.2778 13.378 62.0938 13.5707 62.8078 13.956C63.5218 14.3413 64.0772 14.891 64.4738 15.605C64.8818 16.319 65.0858 17.152 65.0858 18.104ZM62.1108 17.339C62.1108 16.8403 61.9408 16.4437 61.6008 16.149C61.2608 15.8543 60.8358 15.707 60.3258 15.707C59.8385 15.707 59.4248 15.8487 59.0848 16.132C58.7562 16.4153 58.5522 16.8177 58.4728 17.339H62.1108ZM70.4784 23.136C69.6511 23.136 68.9144 22.9943 68.2684 22.711C67.6224 22.4277 67.1124 22.0423 66.7384 21.555C66.3644 21.0563 66.1548 20.501 66.1094 19.889H68.9824C69.0164 20.2177 69.1694 20.484 69.4414 20.688C69.7134 20.892 70.0478 20.994 70.4444 20.994C70.8071 20.994 71.0848 20.926 71.2774 20.79C71.4814 20.6427 71.5834 20.4557 71.5834 20.229C71.5834 19.957 71.4418 19.7587 71.1584 19.634C70.8751 19.498 70.4161 19.3507 69.7814 19.192C69.1014 19.0333 68.5348 18.869 68.0814 18.699C67.6281 18.5177 67.2371 18.24 66.9084 17.866C66.5798 17.4807 66.4154 16.965 66.4154 16.319C66.4154 15.775 66.5628 15.282 66.8574 14.84C67.1634 14.3867 67.6054 14.0297 68.1834 13.769C68.7728 13.5083 69.4698 13.378 70.2744 13.378C71.4644 13.378 72.3994 13.6727 73.0794 14.262C73.7708 14.8513 74.1674 15.6333 74.2694 16.608H71.5834C71.5381 16.2793 71.3908 16.0187 71.1414 15.826C70.9034 15.6333 70.5861 15.537 70.1894 15.537C69.8494 15.537 69.5888 15.605 69.4074 15.741C69.2261 15.8657 69.1354 16.0413 69.1354 16.268C69.1354 16.54 69.2771 16.744 69.5604 16.88C69.8551 17.016 70.3084 17.152 70.9204 17.288C71.6231 17.4693 72.1954 17.6507 72.6374 17.832C73.0794 18.002 73.4648 18.2853 73.7934 18.682C74.1334 19.0673 74.3091 19.5887 74.3204 20.246C74.3204 20.8013 74.1618 21.3 73.8444 21.742C73.5384 22.1727 73.0908 22.5127 72.5014 22.762C71.9234 23.0113 71.2491 23.136 70.4784 23.136ZM80.4169 23.136C79.4876 23.136 78.6489 22.9377 77.9009 22.541C77.1643 22.1443 76.5806 21.5777 76.1499 20.841C75.7306 20.1043 75.5209 19.243 75.5209 18.257C75.5209 17.2823 75.7363 16.4267 76.1669 15.69C76.5976 14.942 77.1869 14.3697 77.9349 13.973C78.6829 13.5763 79.5216 13.378 80.4509 13.378C81.3803 13.378 82.2189 13.5763 82.9669 13.973C83.7149 14.3697 84.3043 14.942 84.7349 15.69C85.1656 16.4267 85.3809 17.2823 85.3809 18.257C85.3809 19.2317 85.1599 20.093 84.7179 20.841C84.2873 21.5777 83.6923 22.1443 82.9329 22.541C82.1849 22.9377 81.3463 23.136 80.4169 23.136ZM80.4169 20.62C80.9723 20.62 81.4426 20.416 81.8279 20.008C82.2246 19.6 82.4229 19.0163 82.4229 18.257C82.4229 17.4977 82.2303 16.914 81.8449 16.506C81.4709 16.098 81.0063 15.894 80.4509 15.894C79.8843 15.894 79.4139 16.098 79.0399 16.506C78.6659 16.9027 78.4789 17.4863 78.4789 18.257C78.4789 19.0163 78.6603 19.6 79.0229 20.008C79.3969 20.416 79.8616 20.62 80.4169 20.62ZM89.8301 10.42V23H86.9231V10.42H89.8301ZM101.304 13.514V23H98.3968V21.708C98.1021 22.1273 97.6998 22.4673 97.1898 22.728C96.6911 22.9773 96.1358 23.102 95.5238 23.102C94.7985 23.102 94.1581 22.9433 93.6028 22.626C93.0475 22.2973 92.6168 21.827 92.3108 21.215C92.0048 20.603 91.8518 19.8833 91.8518 19.056V13.514H94.7418V18.665C94.7418 19.2997 94.9061 19.7927 95.2348 20.144C95.5635 20.4953 96.0055 20.671 96.5608 20.671C97.1275 20.671 97.5751 20.4953 97.9038 20.144C98.2325 19.7927 98.3968 19.2997 98.3968 18.665V13.514H101.304ZM108.679 20.535V23H107.2C106.146 23 105.324 22.745 104.735 22.235C104.146 21.7137 103.851 20.8693 103.851 19.702V15.928H102.695V13.514H103.851V11.202H106.758V13.514H108.662V15.928H106.758V19.736C106.758 20.0193 106.826 20.2233 106.962 20.348C107.098 20.4727 107.325 20.535 107.642 20.535H108.679ZM111.76 12.528C111.25 12.528 110.831 12.3807 110.502 12.086C110.185 11.78 110.026 11.406 110.026 10.964C110.026 10.5107 110.185 10.1367 110.502 9.842C110.831 9.536 111.25 9.383 111.76 9.383C112.259 9.383 112.667 9.536 112.984 9.842C113.313 10.1367 113.477 10.5107 113.477 10.964C113.477 11.406 113.313 11.78 112.984 12.086C112.667 12.3807 112.259 12.528 111.76 12.528ZM113.205 13.514V23H110.298V13.514H113.205ZM119.63 23.136C118.7 23.136 117.862 22.9377 117.114 22.541C116.377 22.1443 115.793 21.5777 115.363 20.841C114.943 20.1043 114.734 19.243 114.734 18.257C114.734 17.2823 114.949 16.4267 115.38 15.69C115.81 14.942 116.4 14.3697 117.148 13.973C117.896 13.5763 118.734 13.378 119.664 13.378C120.593 13.378 121.432 13.5763 122.18 13.973C122.928 14.3697 123.517 14.942 123.948 15.69C124.378 16.4267 124.594 17.2823 124.594 18.257C124.594 19.2317 124.373 20.093 123.931 20.841C123.5 21.5777 122.905 22.1443 122.146 22.541C121.398 22.9377 120.559 23.136 119.63 23.136ZM119.63 20.62C120.185 20.62 120.655 20.416 121.041 20.008C121.437 19.6 121.636 19.0163 121.636 18.257C121.636 17.4977 121.443 16.914 121.058 16.506C120.684 16.098 120.219 15.894 119.664 15.894C119.097 15.894 118.627 16.098 118.253 16.506C117.879 16.9027 117.692 17.4863 117.692 18.257C117.692 19.0163 117.873 19.6 118.236 20.008C118.61 20.416 119.074 20.62 119.63 20.62ZM131.916 13.412C133.027 13.412 133.911 13.7747 134.568 14.5C135.237 15.214 135.571 16.2 135.571 17.458V23H132.681V17.849C132.681 17.2143 132.517 16.7213 132.188 16.37C131.859 16.0187 131.417 15.843 130.862 15.843C130.307 15.843 129.865 16.0187 129.536 16.37C129.207 16.7213 129.043 17.2143 129.043 17.849V23H126.136V13.514H129.043V14.772C129.338 14.3527 129.734 14.024 130.233 13.786C130.732 13.5367 131.293 13.412 131.916 13.412ZM137.013 18.24C137.013 17.2653 137.194 16.4097 137.557 15.673C137.931 14.9363 138.435 14.3697 139.07 13.973C139.705 13.5763 140.413 13.378 141.195 13.378C141.864 13.378 142.447 13.514 142.946 13.786C143.456 14.058 143.847 14.415 144.119 14.857V13.514H147.026V23H144.119V21.657C143.836 22.099 143.439 22.456 142.929 22.728C142.43 23 141.847 23.136 141.178 23.136C140.407 23.136 139.705 22.9377 139.07 22.541C138.435 22.133 137.931 21.5607 137.557 20.824C137.194 20.076 137.013 19.2147 137.013 18.24ZM144.119 18.257C144.119 17.5317 143.915 16.9593 143.507 16.54C143.11 16.1207 142.623 15.911 142.045 15.911C141.467 15.911 140.974 16.1207 140.566 16.54C140.169 16.948 139.971 17.5147 139.971 18.24C139.971 18.9653 140.169 19.5433 140.566 19.974C140.974 20.3933 141.467 20.603 142.045 20.603C142.623 20.603 143.11 20.3933 143.507 19.974C143.915 19.5547 144.119 18.9823 144.119 18.257ZM152.036 15.095C152.376 14.5737 152.801 14.1657 153.311 13.871C153.821 13.565 154.388 13.412 155.011 13.412V16.489H154.212C153.487 16.489 152.943 16.6477 152.58 16.965C152.218 17.271 152.036 17.815 152.036 18.597V23H149.129V13.514H152.036V15.095ZM166.091 13.514L160.141 27.505H157.013L159.189 22.677L155.33 13.514H158.577L160.77 19.447L162.946 13.514H166.091Z" fill="white"/></g>
</svg>
